<svg xmlns="http://www.w3.org/2000/svg" width="58.091" height="58.09" viewBox="0 0 58.091 58.09">
  <g id="ic_money_light" transform="translate(-0.001 -0.006)">
    <g id="Group_364" data-name="Group 364" transform="translate(0.001 26.979)">
      <g id="Group_363" data-name="Group 363" transform="translate(0)">
        <path id="Path_1081" data-name="Path 1081" d="M.792,239.9a1.21,1.21,0,0,0-.719,1.549l.76,2.091,5.787-5.787Z" transform="translate(-0.001 -237.75)" fill="#fff"/>
      </g>
    </g>
    <g id="Group_366" data-name="Group 366" transform="translate(6.27 47.715)">
      <g id="Group_365" data-name="Group 365">
        <path id="Path_1082" data-name="Path 1082" d="M55.257,420.513l3.485,9.585a1.2,1.2,0,0,0,.627.683,1.217,1.217,0,0,0,.511.114,1.186,1.186,0,0,0,.419-.075l3.846-1.418Z" transform="translate(-55.257 -420.513)" fill="#fff"/>
      </g>
    </g>
    <g id="Group_368" data-name="Group 368" transform="translate(32.311 28.565)">
      <g id="Group_367" data-name="Group 367">
        <path id="Path_1083" data-name="Path 1083" d="M310.49,262.691,306.5,251.724l-9.573,9.573,4.744-1.748a1.21,1.21,0,1,1,.837,2.27l-6.027,2.222a1.209,1.209,0,0,1-1.554-.716c0-.007,0-.015,0-.022l-10.144,10.144,24.988-9.207A1.207,1.207,0,0,0,310.49,262.691Z" transform="translate(-284.783 -251.724)" fill="#fff"/>
      </g>
    </g>
    <g id="Group_370" data-name="Group 370" transform="translate(0.003 0.006)">
      <g id="Group_369" data-name="Group 369">
        <path id="Path_1084" data-name="Path 1084" d="M57.753,19.723,38.39.36a1.211,1.211,0,0,0-1.711,0L.373,36.666a1.211,1.211,0,0,0,0,1.711L19.736,57.74a1.2,1.2,0,0,0,.854.356,1.215,1.215,0,0,0,.857-.353L57.753,21.437A1.214,1.214,0,0,0,57.753,19.723ZM14.186,33.539,9.345,38.379a1.211,1.211,0,0,1-1.714-1.711l4.841-4.841a1.211,1.211,0,0,1,1.714,1.711Zm20.9,1.537a4.569,4.569,0,0,1-3.316,1.268,10,10,0,0,1-6.731-3.214,11.088,11.088,0,0,1-3.023-5.151,5.057,5.057,0,0,1,1.077-4.9,5.042,5.042,0,0,1,4.9-1.077,11.068,11.068,0,0,1,5.151,3.023C36.5,28.388,37.359,32.8,35.086,35.075ZM50.492,21.437l-4.841,4.841a1.211,1.211,0,1,1-1.714-1.711l4.841-4.841a1.211,1.211,0,0,1,1.714,1.711Z" transform="translate(-0.019 -0.006)" fill="#fff"/>
      </g>
    </g>
  </g>
</svg>
