<svg xmlns="http://www.w3.org/2000/svg" width="29.216" height="29.277" viewBox="0 0 29.216 29.277">
  <g id="ic_phone" transform="translate(-15.679 -17.052)">
    <g id="Group_1" data-name="Group 1" transform="translate(15.679 17.052)">
      <path id="Path_2" data-name="Path 2" d="M118.157,120.985s-1.155-1.386-2.434-.43c-.953.713-2.666,2.3-3.077,2.682a34.246,34.246,0,0,1-4.557-2.92,23.956,23.956,0,0,1-5.067-6.061l-.657-1.238c.229-.247,1.982-2.124,2.741-3.143.955-1.278-.429-2.433-.429-2.433s-3.895-3.895-4.782-4.668a1.909,1.909,0,0,0-1.909-.345c-1.866,1.206-3.8,2.254-3.914,7.293,0,4.718,3.578,9.584,7.45,13.351,3.88,4.255,9.207,8.519,14.355,8.514,5.039-.113,6.086-2.047,7.291-3.913a1.906,1.906,0,0,0-.342-1.908C122.052,124.878,118.157,120.985,118.157,120.985Z" transform="translate(-94.072 -102.31)" fill="#fff"/>
    </g>
  </g>
</svg>
