<svg xmlns="http://www.w3.org/2000/svg" width="48.701" height="35.938" viewBox="0 0 48.701 35.938">
  <g id="ic_shopping_cart_color" transform="translate(0 -3.688)">
    <g id="Group_408" data-name="Group 408" transform="translate(0 3.688)">
      <circle id="Ellipse_17" data-name="Ellipse 17" cx="3.61" cy="3.61" r="3.61" transform="translate(12.009 28.719)" fill="#3ecda4"/>
      <circle id="Ellipse_18" data-name="Ellipse 18" cx="3.61" cy="3.61" r="3.61" transform="translate(39.677 28.719)" fill="#3ecda4"/>
      <path id="Path_1105" data-name="Path 1105" d="M48.7,10.71c0-.057-.028-.106-.031-.163A1.942,1.942,0,0,0,48.6,10.2a2.316,2.316,0,0,0-.125-.317,1.677,1.677,0,0,0-.189-.279,1.582,1.582,0,0,0-.241-.253,1.7,1.7,0,0,0-.272-.183,1.908,1.908,0,0,0-.337-.151,1.59,1.59,0,0,0-.147-.066,1.277,1.277,0,0,0-.2,0c-.067-.005-.125-.038-.192-.038L12.007,8.9c-.026,0-.047.014-.073.016L10.751,4.975A1.807,1.807,0,0,0,9.022,3.688H1.8a1.8,1.8,0,0,0,0,3.61H7.681l6.833,22.775a1.8,1.8,0,0,0,1.729,1.284H42.707a1.8,1.8,0,0,0,1.763-1.412L48.658,11.1a1.474,1.474,0,0,0,0-.2A1.621,1.621,0,0,0,48.7,10.71ZM41.262,27.747H17.586L13.014,12.509l31.633.005Z" transform="translate(0 -3.688)" fill="#3ecda4"/>
    </g>
  </g>
</svg>
