<svg xmlns="http://www.w3.org/2000/svg" width="58.266" height="55.932" viewBox="0 0 58.266 55.932">
  <g id="ic_wallet-light" transform="translate(0 -17.84)">
    <g id="Group_393" data-name="Group 393" transform="translate(0 17.84)">
      <path id="Path_1094" data-name="Path 1094" d="M162.68,28.487l23.228-6.34-1.23-2.486a3.273,3.273,0,0,0-4.384-1.479L159.5,28.487Z" transform="translate(-149.064 -17.84)" fill="#fff"/>
      <path id="Path_1095" data-name="Path 1095" d="M344.986,86.46a3.27,3.27,0,0,0-.864.118l-5.457,1.492L322,92.617h27.16l-1.021-3.743A3.266,3.266,0,0,0,344.986,86.46Z" transform="translate(-300.931 -81.97)" fill="#fff"/>
      <path id="Path_1096" data-name="Path 1096" d="M51.638,215.56H3.278a3.276,3.276,0,0,0-3.16,2.414,3.386,3.386,0,0,0-.118.857v36.452a3.273,3.273,0,0,0,3.272,3.272h48.36a3.273,3.273,0,0,0,3.272-3.272v-9.128H35.49a5.565,5.565,0,0,1-5.562-5.562v-7.276a5.553,5.553,0,0,1,5.555-5.555H54.9v-8.931A3.263,3.263,0,0,0,51.638,215.56Z" transform="translate(0 -202.623)" fill="#fff"/>
      <path id="Path_1097" data-name="Path 1097" d="M517.382,437.618a3.268,3.268,0,0,0-1.145-.681,3.337,3.337,0,0,0-1.06-.177h-19.5a3.273,3.273,0,0,0-3.272,3.272v7.282a3.273,3.273,0,0,0,3.272,3.272h19.5a3.334,3.334,0,0,0,1.06-.177,3.172,3.172,0,0,0,1.145-.68,3.26,3.26,0,0,0,1.067-2.414v-7.283A3.26,3.26,0,0,0,517.382,437.618ZM502.5,444.325a1.636,1.636,0,0,1-1.636,1.636h-1.086a1.636,1.636,0,0,1-1.636-1.636v-1.086a1.6,1.6,0,0,1,.628-1.283,1.653,1.653,0,0,1,1.008-.353h1.086a1.636,1.636,0,0,1,1.636,1.636v1.086Z" transform="translate(-460.182 -409.351)" fill="#fff"/>
    </g>
  </g>
</svg>
