<svg xmlns="http://www.w3.org/2000/svg" width="600" height="600" viewBox="0 0 600 600">
  <g id="icon-school" transform="translate(1219 220)">
    <circle id="Ellipse_1" data-name="Ellipse 1" cx="300" cy="300" r="300" transform="translate(-1219 -220)" fill="#ef7332"/>
    <path id="cap" d="M507.105,95.2,345.2,33.477a7.6,7.6,0,1,0-5.418,14.211l143.27,54.621-99.18,37.816L259.137,83.648A7.6,7.6,0,0,0,252.864,97.5l110.988,50.254L256,188.875,28.949,102.308,256,15.742l55.953,21.336a7.6,7.6,0,1,0,5.418-14.211L258.711.5a7.606,7.606,0,0,0-5.422,0L4.894,95.2A7.61,7.61,0,0,0,0,102.308v34.727a7.61,7.61,0,0,0,4.895,7.105l77.566,29.57v26.352a7.6,7.6,0,1,0,15.207,0V179.512l155.621,59.332a7.6,7.6,0,0,0,5.422,0l117.3-44.723V314.465A257.64,257.64,0,0,1,97.667,289.809V230.481a7.6,7.6,0,1,0-15.207,0v63.012a7.6,7.6,0,0,0,2.848,5.934,272.8,272.8,0,0,0,290.707,32.082v30.777a28.893,28.893,0,1,0,15.207,0V323.477a271.026,271.026,0,0,0,35.473-24.051,7.6,7.6,0,0,0,2.852-5.934V173.707l77.559-29.57A7.6,7.6,0,0,0,512,137.031V102.309A7.61,7.61,0,0,0,507.1,95.2ZM397.3,390.156a13.686,13.686,0,1,1-13.687-13.687A13.7,13.7,0,0,1,397.3,390.156ZM15.206,113.347l233.188,88.906V220.7L15.206,131.792ZM263.6,220.7V202.254l112.41-42.859v18.449ZM414.334,289.8a254.725,254.725,0,0,1-23.113,16.008V188.32l23.113-8.812ZM391.221,172.043V153.6l105.57-40.25v18.445Zm0,0" transform="translate(-1174.999 -130)" fill="#fff"/>
  </g>
</svg>
