<svg xmlns="http://www.w3.org/2000/svg" width="640" height="640" viewBox="0 0 640 640">
  <g id="icon-shop" transform="translate(1084 190)">
    <circle id="Ellipse_1" data-name="Ellipse 1" cx="320" cy="320" r="320" transform="translate(-1084 -190)" fill="#5f65dc"/>
    <g id="square-shopping-bag-with-handle" transform="translate(-967.262 -74)">
      <path id="Path_1" data-name="Path 1" d="M255.1,116.515a8.129,8.129,0,1,0,0-16.258H143.486a8.129,8.129,0,0,0,0,16.258Z" fill="#fff"/>
      <path id="Path_2" data-name="Path 2" d="M367.062,100.258H311.69a8.129,8.129,0,0,0,0,16.258h47.243V391.2H48.519V116.515H93.055a8.129,8.129,0,1,0,0-16.258H40.391a8.126,8.126,0,0,0-8.129,8.129V399.324a8.127,8.127,0,0,0,8.129,8.129H367.062a8.126,8.126,0,0,0,8.129-8.129V108.386A8.121,8.121,0,0,0,367.062,100.258Z" fill="#fff"/>
      <path id="Path_3" data-name="Path 3" d="M282.59,134.8a8.126,8.126,0,0,0,8.129-8.129V67.394C290.718,30.238,250.6,0,201.1,0c-49.308,0-89.414,30.238-89.414,67.394v59.274a8.129,8.129,0,1,0,16.258,0V67.394c0-28.2,32.823-51.137,73.36-51.137,40.334,0,73.157,22.939,73.157,51.137v59.274A8.12,8.12,0,0,0,282.59,134.8Z" fill="#fff"/>
      <path id="Path_4" data-name="Path 4" d="M98.892,147.566a20.923,20.923,0,0,0,41.846,0,8.129,8.129,0,0,0-16.258,0,4.666,4.666,0,0,1-9.332,0,8.128,8.128,0,1,0-16.256,0Z" fill="#fff"/>
      <path id="Path_5" data-name="Path 5" d="M282.59,168.473a20.941,20.941,0,0,0,20.923-20.907,8.129,8.129,0,0,0-16.258,0,4.666,4.666,0,0,1-9.332,0,8.129,8.129,0,0,0-16.258,0A20.944,20.944,0,0,0,282.59,168.473Z" fill="#fff"/>
    </g>
  </g>
</svg>
