<svg xmlns="http://www.w3.org/2000/svg" width="58" height="40.6" viewBox="0 0 58 40.6">
  <path id="Font_Awesome_5_solid_user-friends" d="M17.4,52.3A10.15,10.15,0,1,0,7.25,42.15,10.145,10.145,0,0,0,17.4,52.3Zm6.96,2.9h-.752a14.014,14.014,0,0,1-12.416,0H10.44A10.443,10.443,0,0,0,0,65.64v2.61A4.351,4.351,0,0,0,4.35,72.6h26.1a4.351,4.351,0,0,0,4.35-4.35V65.64A10.443,10.443,0,0,0,24.36,55.2ZM43.5,52.3a8.7,8.7,0,1,0-8.7-8.7A8.7,8.7,0,0,0,43.5,52.3Zm4.35,2.9h-.344a11.428,11.428,0,0,1-8.011,0H39.15A10.066,10.066,0,0,0,34.1,56.6a13.262,13.262,0,0,1,3.6,9.044v3.48c0,.2-.045.39-.054.58h16A4.351,4.351,0,0,0,58,65.35,10.145,10.145,0,0,0,47.85,55.2Z" transform="translate(0 -32)" fill="#fff"/>
</svg>
