<svg xmlns="http://www.w3.org/2000/svg" width="45.501" height="45.5" viewBox="0 0 45.501 45.5">
  <g id="ic_bank_color" transform="translate(0 -0.008)">
    <g id="Group_405" data-name="Group 405" transform="translate(0 0.008)">
      <g id="Group_404" data-name="Group 404" transform="translate(0 0)">
        <path id="Path_1103" data-name="Path 1103" d="M44.079,17.07A1.422,1.422,0,0,0,45.5,15.648V12.8a1.421,1.421,0,0,0-.754-1.254L23.419.174a1.431,1.431,0,0,0-1.339,0L.751,11.55A1.424,1.424,0,0,0,0,12.8v2.844A1.422,1.422,0,0,0,1.422,17.07H2.844V36.976A2.847,2.847,0,0,0,0,39.82v4.266a1.422,1.422,0,0,0,1.422,1.422H44.079A1.422,1.422,0,0,0,45.5,44.086V39.82a2.847,2.847,0,0,0-2.844-2.844V17.07ZM42.657,42.664H2.844V39.82H42.657ZM5.688,36.976V17.07H8.531V36.976Zm5.688,0V17.07H34.126V36.976H11.375Zm25.594,0V17.07h2.844V36.976ZM2.844,14.226v-.569L22.751,3.041,42.657,13.657v.569Z" transform="translate(0 -0.008)" fill="#fa68a4"/>
      </g>
    </g>
    <g id="Group_407" data-name="Group 407" transform="translate(18.485 17.07)">
      <g id="Group_406" data-name="Group 406">
        <path id="Path_1104" data-name="Path 1104" d="M212.266,200.523a1.422,1.422,0,1,1,0-2.844h2.844a1.422,1.422,0,1,0,0-2.844h-1.422v-1.422a1.422,1.422,0,1,0-2.844,0V195.1a4.255,4.255,0,0,0,1.422,8.27,1.422,1.422,0,0,1,0,2.844h-2.844a1.422,1.422,0,0,0,0,2.844h1.422v1.422a1.422,1.422,0,0,0,2.844,0v-1.684a4.255,4.255,0,0,0-1.422-8.27Z" transform="translate(-208 -191.992)" fill="#fa68a4"/>
      </g>
    </g>
  </g>
</svg>
