<svg xmlns="http://www.w3.org/2000/svg" width="23.062" height="32.087" viewBox="0 0 23.062 32.087">
  <g id="ic_book" transform="translate(-72)">
    <path id="Path_3" data-name="Path 3" d="M94.06,0H76.136A4.141,4.141,0,0,0,72,4.136V27.574a4.517,4.517,0,0,0,4.512,4.512H94.06a1,1,0,0,0,0-2.005H76.512a2.507,2.507,0,0,1,0-5.014H94.06a1,1,0,0,0,1-1V1A1,1,0,0,0,94.06,0ZM74.005,23.277V4.136a2.131,2.131,0,0,1,2.131-2.131H76.2a.313.313,0,0,1,.313.313v20.44a.312.312,0,0,1-.29.312,4.478,4.478,0,0,0-1.764.486A.313.313,0,0,1,74.005,23.277Z" fill="#b06ab3"/>
    <path id="Path_4" data-name="Path 4" d="M146.55,424H129a1,1,0,1,0,0,2.005H146.55a1,1,0,1,0,0-2.005Z" transform="translate(-52.491 -397.428)" fill="#b06ab3"/>
  </g>
</svg>
