<svg xmlns="http://www.w3.org/2000/svg" width="66.091" height="44.5" viewBox="0 0 66.091 44.5">
  <g id="ic_dollar_light" transform="translate(0 -75.473)">
    <g id="Group_376" data-name="Group 376" transform="translate(27.484 108.901)">
      <g id="Group_375" data-name="Group 375" transform="translate(0 0)">
        <path id="Path_1085" data-name="Path 1085" d="M198.683,309.617v-.257c-1.316-.014-2.575-.086-3.791-.186a17.272,17.272,0,0,1-2.746,4.706,44.683,44.683,0,0,0,6.623.586Z" transform="translate(-192.146 -309.173)" fill="#fff"/>
      </g>
    </g>
    <g id="Group_378" data-name="Group 378" transform="translate(0 88.504)">
      <g id="Group_377" data-name="Group 377" transform="translate(0 0)">
        <path id="Path_1086" data-name="Path 1086" d="M28.228,177.945A14.361,14.361,0,0,0,18.473,167.2a14.568,14.568,0,0,0-4.22-.629,14.253,14.253,0,1,0,9.6,24.789,14.173,14.173,0,0,0,4.663-10.542A14.959,14.959,0,0,0,28.228,177.945Zm-13.975.958a5.4,5.4,0,0,1,1.459,10.6v1.259a1.43,1.43,0,1,1-2.861,0v-1.244A5.434,5.434,0,0,1,8.846,184.3a1.43,1.43,0,0,1,2.861,0,2.539,2.539,0,1,0,2.532-2.546,5.4,5.4,0,0,1-1.373-10.614v-.615a1.43,1.43,0,1,1,2.861,0v.644a5.407,5.407,0,0,1,3.934,5.207,1.43,1.43,0,1,1-2.861,0,2.546,2.546,0,1,0-2.546,2.532Z" transform="translate(0 -166.573)" fill="#fff"/>
      </g>
    </g>
    <g id="Group_380" data-name="Group 380" transform="translate(31.046 101.048)">
      <g id="Group_379" data-name="Group 379">
        <path id="Path_1087" data-name="Path 1087" d="M219.978,259.437l-.086-5.064c-.887-.014-1.759-.043-2.589-.1.043.572.072,1.13.072,1.688a17.582,17.582,0,0,1-.329,3.347C217.99,259.394,218.977,259.437,219.978,259.437Z" transform="translate(-217.046 -254.273)" fill="#fff"/>
      </g>
    </g>
    <g id="Group_382" data-name="Group 382" transform="translate(20.261 82.539)">
      <g id="Group_381" data-name="Group 381" transform="translate(0 0)">
        <path id="Path_1088" data-name="Path 1088" d="M171.026,124.873a17.155,17.155,0,0,1-3.1,1.244,47.258,47.258,0,0,1-23.187.114,15.847,15.847,0,0,1-3.09-1.187l.1,4.034a16.5,16.5,0,0,1,4.477,2.532c.043.014.072.014.114.029a40.923,40.923,0,0,0,9.741,1.073,40.488,40.488,0,0,0,11.014-1.387c3.1-.944,3.791-1.931,3.791-2.117a.822.822,0,0,1,.143-.586Z" transform="translate(-141.646 -124.873)" fill="#fff"/>
      </g>
    </g>
    <g id="Group_384" data-name="Group 384" transform="translate(20.118 75.473)">
      <g id="Group_383" data-name="Group 383" transform="translate(0 0)">
        <path id="Path_1089" data-name="Path 1089" d="M166.221,76.86a39.936,39.936,0,0,0-11.014-1.387,38.638,38.638,0,0,0-10.871,1.387c-3.018.915-3.676,1.817-3.69,2.1,0,0,.014,0,.014.029.072.315.93,1.287,4.005,2.174a39.274,39.274,0,0,0,10.542,1.287,40.419,40.419,0,0,0,11-1.373c3.1-.93,3.8-1.917,3.8-2.117S169.325,77.8,166.221,76.86Z" transform="translate(-140.646 -75.473)" fill="#fff"/>
      </g>
    </g>
    <g id="Group_386" data-name="Group 386" transform="translate(36.939 112.148)">
      <g id="Group_385" data-name="Group 385">
        <path id="Path_1090" data-name="Path 1090" d="M287.369,336.164v-4.291a18.328,18.328,0,0,1-3,1.216,42.3,42.3,0,0,1-11.815,1.5,44.02,44.02,0,0,1-10.742-1.23,18.636,18.636,0,0,1-3.562-1.3l.072,4.148v.029c0,.215.629,1.173,3.647,2.1a38.924,38.924,0,0,0,10.857,1.359,38.189,38.189,0,0,0,10.885-1.4c3.018-.944,3.676-1.931,3.676-2.131Z" transform="translate(-258.246 -331.873)" fill="#fff"/>
      </g>
    </g>
    <g id="Group_388" data-name="Group 388" transform="translate(28.185 90.521)">
      <g id="Group_387" data-name="Group 387" transform="translate(0 0)">
        <path id="Path_1091" data-name="Path 1091" d="M218.473,180.673a18.065,18.065,0,0,1-3.09,1.23,42.693,42.693,0,0,1-11.858,1.5,51.521,51.521,0,0,1-6.48-.415,16.958,16.958,0,0,1,2.56,5.321c1.23.086,2.56.143,3.934.143h.143c2.346-2.575,8.654-3.862,14.79-4.034v-3.748Z" transform="translate(-197.046 -180.673)" fill="#fff"/>
      </g>
    </g>
    <g id="Group_390" data-name="Group 390" transform="translate(36.81 104.238)">
      <g id="Group_389" data-name="Group 389" transform="translate(0 0)">
        <path id="Path_1092" data-name="Path 1092" d="M283.494,277.789a42.815,42.815,0,0,1-11.686,1.459,42.277,42.277,0,0,1-11.343-1.387,17.549,17.549,0,0,1-3.118-1.2l.057,3.29.014,1.2c1.116,1.388,6.451,3.175,14.375,3.175a39.577,39.577,0,0,0,10.971-1.373c3.09-.944,3.762-1.917,3.762-2.117,0-.157.086-.329.086-.472h.014v-3.791A16.333,16.333,0,0,1,283.494,277.789Z" transform="translate(-257.346 -276.573)" fill="#fff"/>
      </g>
    </g>
    <g id="Group_392" data-name="Group 392" transform="translate(36.71 97.158)">
      <g id="Group_391" data-name="Group 391">
        <path id="Path_1093" data-name="Path 1093" d="M282.221,228.432a40.088,40.088,0,0,0-11.014-1.359h-.243a38.93,38.93,0,0,0-10.2,1.216c-2.961.83-3.977,1.774-4.105,2.16a.108.108,0,0,0-.014.057l.029.057c.086.3.93,1.273,4.005,2.174a44.454,44.454,0,0,0,21.413-.072c3.175-.944,3.891-1.931,3.9-2.146v-.014C285.983,230.291,285.268,229.347,282.221,228.432Z" transform="translate(-256.646 -227.073)" fill="#fff"/>
      </g>
    </g>
  </g>
</svg>
