<svg xmlns="http://www.w3.org/2000/svg" width="41.104" height="36.608" viewBox="0 0 41.104 36.608">
  <path id="ic_money-transfer_color" d="M41.1,6.423v9.313a1.606,1.606,0,1,1-3.211,0V6.423a3.215,3.215,0,0,0-3.211-3.211H6.423A3.215,3.215,0,0,0,3.211,6.423v9.313a1.606,1.606,0,1,1-3.211,0V6.423A6.43,6.43,0,0,1,6.423,0H34.682A6.43,6.43,0,0,1,41.1,6.423ZM39.5,22.158a1.606,1.606,0,0,0-1.606,1.606,3.215,3.215,0,0,1-3.211,3.211H18.706a1.606,1.606,0,1,0,0,3.211H34.682A6.43,6.43,0,0,0,41.1,23.763,1.606,1.606,0,0,0,39.5,22.158ZM20.963,20.524a1.606,1.606,0,0,0,.146,3.2c.049,0,.1,0,.15-.007a7.9,7.9,0,0,0,5.3-2.808,9,9,0,0,0,2.106-5.83c0-4.781-3.637-8.67-8.108-8.67s-8.108,3.889-8.108,8.67a9.425,9.425,0,0,0,.062,1.078,1.606,1.606,0,0,0,3.19-.37,6.174,6.174,0,0,1-.041-.708,5.207,5.207,0,0,1,4.9-5.459,5.207,5.207,0,0,1,4.9,5.459,5.289,5.289,0,0,1-4.486,5.44Zm13.96-5.511a1.606,1.606,0,1,0-1.606,1.606A1.606,1.606,0,0,0,34.922,15.013Zm-25.53,0a1.606,1.606,0,1,0-1.606,1.606A1.606,1.606,0,0,0,9.393,15.013Zm2.89,11.962H1.606a1.606,1.606,0,1,0,0,3.211H12.283a1.606,1.606,0,1,0,0-3.211Zm2.408-6.423H1.606a1.606,1.606,0,0,0,0,3.211H14.692a1.606,1.606,0,1,0,0-3.211ZM9.875,33.4H1.606a1.606,1.606,0,1,0,0,3.211H9.875a1.606,1.606,0,1,0,0-3.211Zm0,0" fill="#ff9653"/>
</svg>
