<svg xmlns="http://www.w3.org/2000/svg" width="46.832" height="46.835" viewBox="0 0 46.832 46.835">
  <g id="ic_sale_label_color" transform="translate(-0.5)">
    <path id="Path_1098" data-name="Path 1098" d="M41.478,0h-13.8a5.821,5.821,0,0,0-4.14,1.714L2.211,23.042a5.863,5.863,0,0,0,0,8.279l13.8,13.8a5.854,5.854,0,0,0,8.28,0L45.618,23.792a5.814,5.814,0,0,0,1.715-4.139V5.854A5.86,5.86,0,0,0,41.478,0Zm1.951,19.653a1.944,1.944,0,0,1-.571,1.381L21.53,42.361a2,2,0,0,1-2.76,0l-13.8-13.8a1.955,1.955,0,0,1,0-2.76L26.3,4.475A1.94,1.94,0,0,1,27.679,3.9h13.8a1.953,1.953,0,0,1,1.951,1.951Zm0,0" transform="translate(0)" fill="#518ae6"/>
    <path id="Path_1099" data-name="Path 1099" d="M238.5,57.83a5.853,5.853,0,1,0-8.5,8.044l.49.518a5.8,5.8,0,0,0,4.171,1.83h.084a5.852,5.852,0,0,0,4.249-9.874Zm-2.383,5.919a1.95,1.95,0,0,1-2.8-.039l-.49-.519a1.949,1.949,0,0,1,1.415-3.289h.028a1.933,1.933,0,0,1,1.389.61l.49.519A1.939,1.939,0,0,1,236.115,63.749Zm0,0" transform="translate(-200.086 -49.169)" fill="#518ae6"/>
    <path id="Path_1100" data-name="Path 1100" d="M130.267,145.94l.93.3a1.951,1.951,0,1,0,1.183-3.719l-.93-.3a1.951,1.951,0,0,0-1.184,3.719Zm0,0" transform="translate(-112.745 -124.794)" fill="#518ae6"/>
    <path id="Path_1101" data-name="Path 1101" d="M171.879,255.836l-.93-.3a1.952,1.952,0,0,0-1.183,3.72l.93.3a1.989,1.989,0,0,0,.591.092,1.952,1.952,0,0,0,.591-3.813Zm0,0" transform="translate(-147.427 -224.293)" fill="#518ae6"/>
    <path id="Path_1102" data-name="Path 1102" d="M123.13,179.428l-9.805,5.072a1.951,1.951,0,0,0,.9,3.684,1.928,1.928,0,0,0,.895-.219l9.805-5.071a1.952,1.952,0,0,0-1.793-3.467Zm0,0" transform="translate(-98.137 -157.352)" fill="#518ae6"/>
  </g>
</svg>
