<svg xmlns="http://www.w3.org/2000/svg" width="650" height="650" viewBox="0 0 650 650">
  <g id="Group_1" data-name="Group 1" transform="translate(865 59)">
    <circle id="Ellipse_1" data-name="Ellipse 1" cx="325" cy="325" r="325" transform="translate(-865 -59)" fill="#f87588"/>
    <g id="statistics" transform="translate(-783 25.63)">
      <path id="Path_1" data-name="Path 1" d="M73.3,240a40.823,40.823,0,0,0,29.282-12.652l41.742,22.2a46.792,46.792,0,0,0-.518,5.453c0,24.813,18.978,45,42.3,45s42.3-20.187,42.3-45a46.792,46.792,0,0,0-4.241-19.277L280.8,175.488A39.751,39.751,0,0,0,298.925,180c23.326,0,42.3-20.187,42.3-45a46.892,46.892,0,0,0-2.112-13.328l49.2-39.242A40.261,40.261,0,0,0,411.736,90c23.326,0,42.3-20.187,42.3-45s-18.978-45-42.3-45-42.3,20.188-42.3,45a46.891,46.891,0,0,0,2.112,13.328l-49.2,39.242A40.262,40.262,0,0,0,298.925,90c-23.326,0-42.3,20.188-42.3,45a46.792,46.792,0,0,0,4.241,19.277l-56.626,60.234A39.751,39.751,0,0,0,186.115,210a40.823,40.823,0,0,0-29.282,12.652l-41.742-22.2a46.792,46.792,0,0,0,.518-5.453c0-24.812-18.978-45-42.3-45S31,170.188,31,195s18.978,45,42.3,45Zm0,0" fill="#fff"/>
      <path id="Path_2" data-name="Path 2" d="M470.83,406.218H455.672V161.576c0-6.4-6.358-11.576-14.21-11.576H384.622c-7.853,0-14.21,5.179-14.21,11.576V406.218h-28.42V231.033c0-6.4-6.358-11.576-14.21-11.576H270.94c-7.853,0-14.21,5.179-14.21,11.576V406.218H228.31V323.642c0-6.4-6.358-11.576-14.21-11.576H157.259c-7.853,0-14.21,5.179-14.21,11.576v82.576h-28.42V277.337c0-6.4-6.358-11.576-14.21-11.576H43.578c-7.853,0-14.21,5.179-14.21,11.576V406.218H14.21C6.358,406.218,0,411.4,0,417.794S6.358,429.37,14.21,429.37H470.83c7.853,0,14.21-5.179,14.21-11.576S478.683,406.218,470.83,406.218Zm0,0" transform="translate(0)" fill="#fff"/>
    </g>
  </g>
</svg>
