<svg xmlns="http://www.w3.org/2000/svg" width="600" height="600" viewBox="0 0 600 600">
  <g id="icon-light" transform="translate(1202 212)">
    <circle id="Ellipse_1" data-name="Ellipse 1" cx="300" cy="300" r="300" transform="translate(-1202 -212)" fill="#27c182"/>
    <g id="lightbulb" transform="translate(-1117.966 -128)">
      <g id="Group_3" data-name="Group 3">
        <g id="Group_2" data-name="Group 2">
          <g id="Group_1" data-name="Group 1">
            <path id="Path_1" data-name="Path 1" d="M216.529,93.2c-61.2,0-111.2,50-111.2,111.2a112.138,112.138,0,0,0,37.6,83.6c17.6,17.6,16,55.2,15.6,55.6a6.623,6.623,0,0,0,2,5.2,7.38,7.38,0,0,0,4.8,2h102a6.624,6.624,0,0,0,4.8-2,7.6,7.6,0,0,0,2-5.2c0-.4-2-38,15.6-55.6l1.2-1.2c23.2-21.2,36.8-51.2,36.8-82.4C327.729,143.2,277.729,93.2,216.529,93.2Zm64,184.4c-.4.4-1.2,1.2-1.2,1.6-15.6,16.8-18.4,44.4-18.8,57.6h-88.4c-.4-13.2-3.2-42-20-59.2a97.4,97.4,0,1,1,128.4,0Z" fill="#fff"/>
            <path id="Path_2" data-name="Path 2" d="M216.129,121.6a6.8,6.8,0,1,0,0,13.6,72.808,72.808,0,0,1,72.8,72.8,6.8,6.8,0,1,0,13.6,0C302.929,160.4,264.129,121.6,216.129,121.6Z" fill="#fff"/>
            <path id="Path_3" data-name="Path 3" d="M260.529,358.4h-88.8a16.8,16.8,0,1,0,0,33.6h88.4c9.6-.4,17.2-7.6,17.2-16.8A16.9,16.9,0,0,0,260.529,358.4Zm0,19.6h-88.8a3.155,3.155,0,0,1-3.2-3.2,2.944,2.944,0,0,1,3.2-3.2h88.4a3.155,3.155,0,0,1,3.2,3.2C263.329,376.8,262.129,378,260.529,378Z" fill="#fff"/>
            <path id="Path_4" data-name="Path 4" d="M247.329,398.8h-62.4a16.8,16.8,0,1,0,0,33.6h62.4a16.9,16.9,0,0,0,16.8-16.8A16.646,16.646,0,0,0,247.329,398.8Zm0,19.6h-62.4a3.155,3.155,0,0,1-3.2-3.2,2.944,2.944,0,0,1,3.2-3.2h62.4a3.2,3.2,0,0,1,0,6.4Z" fill="#fff"/>
            <path id="Path_5" data-name="Path 5" d="M216.129,60a6.742,6.742,0,0,0,6.8-6.8V6.8a6.8,6.8,0,0,0-13.6,0V53.2A7.01,7.01,0,0,0,216.129,60Z" fill="#fff"/>
            <path id="Path_6" data-name="Path 6" d="M329.329,34.4a6.452,6.452,0,0,0-9.2,1.6l-25.6,38.4a6.59,6.59,0,0,0,1.6,9.6,6.452,6.452,0,0,0,3.6,1.2,6.384,6.384,0,0,0,5.6-3.2l25.6-38.4A6.2,6.2,0,0,0,329.329,34.4Z" fill="#fff"/>
            <path id="Path_7" data-name="Path 7" d="M134.929,83.6a6.452,6.452,0,0,0,3.6-1.2,7.008,7.008,0,0,0,2-9.6L115.729,34a6.934,6.934,0,1,0-11.6,7.6l24.8,38.8A6.636,6.636,0,0,0,134.929,83.6Z" fill="#fff"/>
            <path id="Path_8" data-name="Path 8" d="M86.529,126l-40.4-22c-3.2-1.6-7.6-.4-9.2,2.8a6.385,6.385,0,0,0,2.8,9.2l40.4,22a9.414,9.414,0,0,0,3.2.8,6.6,6.6,0,0,0,6-3.6C90.929,132,89.729,127.6,86.529,126Z" fill="#fff"/>
            <path id="Path_9" data-name="Path 9" d="M395.729,106.8c-1.6-3.2-6-4.4-9.2-2.8l-40.8,22c-3.2,1.6-4.4,6-2.8,9.2a6.6,6.6,0,0,0,6,3.6,7.536,7.536,0,0,0,3.2-.8l40.8-22C396.129,114.4,397.329,110,395.729,106.8Z" fill="#fff"/>
          </g>
        </g>
      </g>
    </g>
  </g>
</svg>
