<svg id="instagram-sketched" xmlns="http://www.w3.org/2000/svg" width="48" height="48" viewBox="0 0 48 48">
  <path id="Path_18" data-name="Path 18" d="M219.438,215.219A4.219,4.219,0,1,1,215.219,211,4.219,4.219,0,0,1,219.438,215.219Zm0,0" transform="translate(-191.219 -191.219)" fill="#fff"/>
  <path id="Path_19" data-name="Path 19" d="M139.875,120h-14.25A5.631,5.631,0,0,0,120,125.625v14.25a5.631,5.631,0,0,0,5.625,5.625h14.25a5.631,5.631,0,0,0,5.625-5.625v-14.25A5.631,5.631,0,0,0,139.875,120Zm-7.125,19.781a7.031,7.031,0,1,1,7.031-7.031A7.039,7.039,0,0,1,132.75,139.781Zm8.063-13.687a1.406,1.406,0,1,1,1.406-1.406A1.406,1.406,0,0,1,140.813,126.094Zm0,0" transform="translate(-108.75 -108.75)" fill="#fff"/>
  <path id="Path_20" data-name="Path 20" d="M35.344,0H12.656A12.671,12.671,0,0,0,0,12.656V35.344A12.671,12.671,0,0,0,12.656,48H35.344A12.671,12.671,0,0,0,48,35.344V12.656A12.671,12.671,0,0,0,35.344,0Zm4.219,31.125a8.447,8.447,0,0,1-8.437,8.438H16.875a8.447,8.447,0,0,1-8.437-8.437V16.875a8.447,8.447,0,0,1,8.438-8.437h14.25a8.447,8.447,0,0,1,8.438,8.438Zm0,0" fill="#fff"/>
</svg>
