<svg xmlns="http://www.w3.org/2000/svg" width="32.189" height="26.156" viewBox="0 0 32.189 26.156">
  <path id="twitter" d="M1508.869,3651.317a13.974,13.974,0,0,1-3.8,1.069,6.418,6.418,0,0,0,2.923-3.678,13.12,13.12,0,0,1-4.213,1.6,6.273,6.273,0,0,0-4.81-2.075,6.6,6.6,0,0,0-6.6,6.6,6.047,6.047,0,0,0,.157,1.509,18.886,18.886,0,0,1-13.643-6.916,6.539,6.539,0,0,0-.912,3.333,6.227,6.227,0,0,0,2.861,5.5,7.8,7.8,0,0,1-3.144-.817v.063a6.277,6.277,0,0,0,1.572,4.2,6.607,6.607,0,0,0,3.867,2.279,6.158,6.158,0,0,1-1.6.251,8.8,8.8,0,0,1-1.226-.125,6.712,6.712,0,0,0,2.342,3.269,6.264,6.264,0,0,0,3.819,1.32,13.04,13.04,0,0,1-8.205,2.83,12.646,12.646,0,0,1-1.571-.094,18.525,18.525,0,0,0,10.122,2.955,19.2,19.2,0,0,0,6.6-1.117,16.986,16.986,0,0,0,5.282-2.986,19.827,19.827,0,0,0,3.787-4.307,19.022,19.022,0,0,0,3.128-10.389,8.06,8.06,0,0,0-.032-.849A12.833,12.833,0,0,0,1508.869,3651.317Z" transform="translate(-1476.68 -3648.236)" fill="#fff"/>
</svg>
