<svg xmlns="http://www.w3.org/2000/svg" width="32.19" height="22.538" viewBox="0 0 32.19 22.538">
  <path id="youtube" d="M1583.3,3652.143a4.036,4.036,0,0,0-2.837-2.838c-2.519-.689-12.6-.689-12.6-.689s-10.076,0-12.595.663a4.115,4.115,0,0,0-2.837,2.864,45.536,45.536,0,0,0,0,15.484,4.035,4.035,0,0,0,2.837,2.838c2.546.689,12.595.689,12.595.689s10.076,0,12.6-.663a4.031,4.031,0,0,0,2.837-2.837,42.479,42.479,0,0,0,.663-7.742A40.378,40.378,0,0,0,1583.3,3652.143Zm-18.64,12.568v-9.652l8.378,4.826Z" transform="translate(-1551.777 -3648.616)" fill="#fff"/>
</svg>
